<svg width="265" height="106" viewBox="0 0 265 106" fill="none" xmlns="http://www.w3.org/2000/svg">
<g clip-path="url(#clip0_613_90)">
<g clip-path="url(#clip1_613_90)">
<path fill-rule="evenodd" clip-rule="evenodd" d="M65.5997 12.0663C63.333 9.79967 58.933 7.26633 55.9997 6.46632C53.0663 5.66632 49.733 5.133 48.6663 5.133C27.5997 6.733 13.5997 22.333 7.86633 50.4663C1.33299 82.5997 15.8663 102.733 41.333 96.9997C53.4663 94.333 61.4663 86.733 66.7997 72.8663C69.4663 65.933 70.6663 64.333 73.5997 64.333C75.8663 64.333 76.7997 62.0663 78.533 52.5997L79.4663 47.6663H62.2663H44.933L43.4663 53.533C41.1997 62.8663 41.4663 64.9997 45.333 64.9997C49.333 64.9997 49.4663 65.6663 45.9997 71.3997C42.7997 76.5997 38.133 78.9997 33.333 77.7997C28.3997 76.5997 26.933 71.533 27.733 58.8663C28.2663 50.0663 29.1997 46.333 32.7997 38.8663C40.133 23.933 48.2663 20.8663 51.4663 31.7997L53.0663 36.9997H63.733H74.2663L73.4663 30.5997C71.9997 20.5997 70.2663 16.4663 65.5997 12.0663ZM133.733 25.6663C132.933 16.5997 129.866 12.0663 122 7.933C112.666 3.26633 99.0663 4.59966 90.133 11.3997C84.7997 15.3997 80.6663 24.4663 80.6663 32.1997C80.7997 41.2663 83.9997 47.933 93.733 58.733C100.4 65.933 102 68.5997 102 72.1997C102 80.5997 94.3997 82.4663 91.9997 74.5997L90.7997 70.333H81.1997C75.8663 70.333 71.1997 70.733 70.933 71.2663C69.5997 73.3997 72.3997 85.2663 74.933 88.733C79.733 95.133 85.733 97.6663 95.9997 97.6663C113.333 97.6663 123.333 88.0663 123.333 71.2663C123.333 61.533 120.666 55.2663 113.466 47.6663C104.8 38.5997 102 34.333 102 30.333C102 22.4663 111.066 21.133 113.333 28.5997L114.533 32.9997H124.4H134.266L133.733 25.6663ZM188.666 51.6663V96.9997H178H167.333V90.9997V84.8663L157.066 85.2663L146.666 85.6663L144.133 91.2663L141.6 96.9997H131.333C125.733 96.9997 120.8 96.5997 120.4 96.1997C120 95.7997 121.866 90.5997 124.533 84.5997C127.333 78.5997 136.133 59.2663 144 41.6663C151.866 24.0663 158.933 8.86633 159.733 7.933C160.533 6.86633 165.333 6.33299 174.8 6.33299H188.666V51.6663ZM254.4 54.733C263.066 35.133 259.066 16.1997 244.933 10.0663C237.2 6.59967 213.066 4.99966 212 7.79967C210.4 12.4663 191.866 95.133 192.266 95.933C192.533 96.5997 197.2 96.9997 202.533 96.9997H212.266L213.6 90.8663L215.066 84.8663L210.533 82.5997C208 81.533 206 80.0663 206 79.533C206 79.133 210.933 78.333 217.066 78.0663C235.466 76.9997 247.866 69.2663 254.4 54.733ZM167.468 33.133C166.801 34.8663 163.601 43.133 160.268 51.2663L154.268 66.333H161.201H168.268L169.068 48.733C169.468 38.9997 169.601 30.8663 169.334 30.4663C168.934 30.1997 168.134 31.3997 167.468 33.133ZM222.533 30.0663C220 28.5997 218 26.9997 218 26.4663C218 25.2663 234.267 26.333 235.733 27.6663C238.133 29.7997 238.267 39.533 236 46.1997C233.6 53.533 228.8 58.333 224 58.333H220.933L224 45.533L227.067 32.733L222.533 30.0663Z" fill="white"/>
</g>
</g>
<defs>
<clipPath id="clip0_613_90">
<rect width="265" height="106" fill="white"/>
</clipPath>
<clipPath id="clip1_613_90">
<rect width="341.333" height="341.333" fill="white" transform="translate(-38 -119)"/>
</clipPath>
</defs>
</svg>
