<svg width="194" height="122" viewBox="0 0 194 122" fill="none" xmlns="http://www.w3.org/2000/svg">
<path d="M15.9277 100H0.400391V1.12305C8.21289 0.830078 16.8555 0.683594 26.3281 0.683594C30.7227 0.683594 34.7266 1.02539 38.3398 1.70898C53.7695 4.83398 61.4844 13.916 61.4844 28.9551C61.4844 31.3965 61.2402 33.7891 60.752 36.1328C58.7012 46.4844 52.793 53.6621 43.0273 57.666L56.9434 85.6445C58.2129 88.0859 60.1172 89.4043 62.6562 89.5996H64.2676L65 100.879C62.8516 101.465 60.5566 101.758 58.1152 101.758C51.5723 101.66 46.5918 98.0957 43.1738 91.0645L28.5254 60.5957H26.6211H15.9277V100ZM26.4746 13.5742C23.9355 13.5742 20.4199 13.6719 15.9277 13.8672V47.5586H27.3535C30.0879 47.5586 32.5781 47.2168 34.8242 46.5332C41.9531 44.1895 45.5176 38.916 45.5176 30.7129C45.5176 28.3691 45.2734 26.2695 44.7852 24.4141C43.0273 17.1875 36.9238 13.5742 26.4746 13.5742ZM96.0547 121.68C85.9961 121.68 76.8164 118.359 68.5156 111.719L76.8652 101.025C82.5293 105.615 88.7305 107.959 95.4688 108.057C98.1055 108.057 100.596 107.568 102.939 106.592C109.189 104.053 112.314 98.9746 112.314 91.3574C112.314 88.7207 111.777 86.1816 110.703 83.7402C107.676 77.4902 102.061 74.3652 93.8574 74.3652H85.8008V62.207H91.3672C94.7852 62.207 97.8125 61.6211 100.449 60.4492C106.211 57.8125 109.092 53.0762 109.092 46.2402C109.092 43.4082 108.506 40.8691 107.334 38.623C104.893 34.2285 101.182 32.0312 96.2012 32.0312C90.5371 32.1289 85.9473 35.0098 82.4316 40.6738L71.2988 33.9355C72.1777 32.373 73.2031 30.9082 74.375 29.541C80.1367 22.5098 87.7539 18.9941 97.2266 18.9941C102.891 18.9941 108.018 20.3125 112.607 22.9492C120.615 27.5391 124.619 34.5215 124.619 43.8965C124.619 46.4355 124.277 48.877 123.594 51.2207C121.25 58.7402 116.416 63.916 109.092 66.748C112.217 67.627 115.098 68.9453 117.734 70.7031C124.668 75.5859 128.135 82.373 128.135 91.0645C128.135 99.0723 125.742 105.811 120.957 111.279C114.902 118.213 106.602 121.68 96.0547 121.68ZM193.467 1.12305V14.1602H158.604V43.1641H189.219V56.0547H158.604V100H143.076V1.12305H193.467Z" fill="white"/>
</svg>
