<svg width="290" height="275" viewBox="0 0 290 275" fill="none" xmlns="http://www.w3.org/2000/svg">
<path d="M225.5 103.991V185.5C225.5 187.985 223.485 190 221 190C218.515 190 216.5 187.985 216.5 185.5V137.316C216.5 135.28 213.814 134.546 212.778 136.299L212.253 137.187C211.011 139.289 208.296 139.977 206.203 138.722C204.147 137.488 203.457 134.835 204.652 132.757L221.766 102.994C222.787 101.218 225.5 101.942 225.5 103.991Z" fill="#9A0F0F"/>
<path d="M230.296 71.4954L181.15 160.602C179.987 162.711 177.281 163.395 175.255 162.093C173.42 160.913 172.808 158.517 173.851 156.601L231.579 50.6085C232.455 49.0006 234.139 48 235.97 48H236.5C239.261 48 241.5 50.2386 241.5 53V70.5C241.5 72.9853 239.485 75 237 75H235.437C233.815 75 232.5 73.685 232.5 72.0628C232.5 70.8486 230.883 70.4322 230.296 71.4954Z" fill="#9A0F0F"/>
<path d="M127.051 127.14L143.242 155.879C144.01 157.243 145.976 157.235 146.734 155.865L182.109 91.9188C183.173 89.9952 182.563 87.576 180.713 86.3872C178.697 85.091 176.006 85.7555 174.824 87.8413L146.737 137.432C145.972 138.784 144.026 138.785 143.258 137.435L134.889 122.705C133.598 120.433 130.65 119.733 128.476 121.183C126.516 122.49 125.894 125.087 127.051 127.14Z" fill="#9A0F0F"/>
<path d="M133.739 172.679L143.712 189.062C144.509 190.372 146.424 190.334 147.169 188.992L188.944 113.705C190.091 111.639 189.393 109.036 187.367 107.82C185.249 106.549 182.501 107.278 181.291 109.431L146.687 170.998C145.935 172.337 144.018 172.364 143.229 171.048L141.422 168.036C140.103 165.839 137.216 165.19 135.084 166.611C133.081 167.946 132.488 170.623 133.739 172.679Z" fill="#9A0F0F"/>
<path d="M113.571 169.209L143.257 222.378C144.019 223.744 145.983 223.745 146.748 222.381L168.416 183.718C169.577 181.647 168.881 179.029 166.845 177.807C164.735 176.541 161.996 177.257 160.775 179.394L146.746 203.945C145.976 205.292 144.032 205.287 143.268 203.936L121.213 164.916C120 162.77 117.257 162.046 115.143 163.314C113.113 164.532 112.417 167.142 113.571 169.209Z" fill="#9A0F0F"/>
<path d="M143.34 237.173L129.075 212.884C127.713 210.565 124.617 209.979 122.502 211.641C120.776 212.997 120.3 215.412 121.382 217.322L143.263 255.936C144.029 257.286 145.974 257.288 146.742 255.939L159.542 233.442C160.654 231.486 160.108 229.006 158.277 227.698C156.226 226.233 153.365 226.792 152.016 228.922L146.754 237.23C145.953 238.495 144.098 238.464 143.34 237.173Z" fill="#9A0F0F"/>
<path d="M152.191 95.1451L146.788 103.676C145.979 104.954 144.1 104.906 143.357 103.59L112.206 48.4074C110.997 46.2663 108.261 45.5436 106.152 46.8085C104.12 48.0278 103.431 50.6446 104.597 52.7072L143.737 121.885C144.508 123.246 146.473 123.236 147.229 121.866L159.564 99.5084C160.654 97.5338 160.026 95.0527 158.129 93.8332C156.129 92.5472 153.464 93.136 152.191 95.1451Z" fill="#9A0F0F"/>
<path d="M281.5 13V134.939C281.5 137.182 283.318 139 285.561 139C287.804 139 289.623 137.182 289.623 134.939V5C289.623 2.23858 287.384 0 284.623 0H252.5C250.291 0 248.5 1.79086 248.5 4C248.5 6.20914 250.291 8 252.5 8H276.5C279.261 8 281.5 10.2386 281.5 13Z" fill="#9A0F0F"/>
<path d="M265.5 29V77.9989C265.5 80.2086 267.291 82 269.501 82C271.71 82 273.501 80.21 273.502 78.0011L273.535 21.0028C273.536 18.2403 271.297 16 268.535 16H229.5C227.291 16 225.5 17.7909 225.5 20C225.5 22.2091 227.291 24 229.5 24H260.5C263.261 24 265.5 26.2386 265.5 29Z" fill="#9A0F0F"/>
<path d="M228.062 42.5279L200.64 90.7386C199.49 92.76 196.854 93.3605 194.942 92.0368C193.271 90.88 192.747 88.6463 193.729 86.8669L222.574 34.5846C223.454 32.9901 225.131 32 226.952 32H252.5C255.261 32 257.5 34.2386 257.5 37V49C257.5 51.2091 255.709 53 253.5 53C251.291 53 249.5 51.2091 249.5 49V45C249.5 42.2386 247.261 40 244.5 40H232.408C230.61 40 228.951 40.9652 228.062 42.5279Z" fill="#9A0F0F"/>
<path d="M203.071 2.56932L164.561 71.7945C163.412 73.8603 164.109 76.4654 166.136 77.6816C168.252 78.9514 170.999 78.2236 172.209 76.0726L209.066 10.5487C209.952 8.97431 211.618 8 213.424 8H226.5C228.709 8 230.5 6.20914 230.5 4C230.5 1.79086 228.709 0 226.5 0H207.44C205.625 0 203.953 0.983374 203.071 2.56932Z" fill="#9A0F0F"/>
<path d="M72.5712 16H67.5C65.2909 16 63.5 17.7909 63.5 20C63.5 22.2091 65.2909 24 67.5 24H67.905C69.5064 24 70.9816 24.869 71.7579 26.2697L114.313 103.053C115.508 105.211 118.254 105.947 120.37 104.678C122.392 103.465 123.083 100.864 121.929 98.807L76.9324 18.5547C76.0478 16.9769 74.38 16 72.5712 16Z" fill="#9A0F0F"/>
<path d="M32.5 37V47C32.5 49.2091 34.2909 51 36.5 51C38.7091 51 40.5 49.2091 40.5 47V45C40.5 42.2386 42.7386 40 45.5 40H57.5787C59.3835 40 61.0482 40.9727 61.9344 42.5449L89.153 90.836C90.4066 93.06 93.3121 93.7056 95.3896 92.2217C97.1628 90.9551 97.7062 88.5612 96.6535 86.6532L67.926 34.5846C67.0463 32.9901 65.3692 32 63.5481 32H37.5C34.7386 32 32.5 34.2386 32.5 37Z" fill="#9A0F0F"/>
<path d="M16.5 21V38.5C16.5 40.7091 18.2909 42.5 20.5 42.5C22.7091 42.5 24.5 40.7091 24.5 38.5V29C24.5 26.2386 26.7386 24 29.5 24H41.5C43.7091 24 45.5 22.2091 45.5 20C45.5 17.7909 43.7091 16 41.5 16H21.5C18.7386 16 16.5 18.2386 16.5 21Z" fill="#9A0F0F"/>
<path d="M8.5 13V63C8.5 65.2091 6.70914 67 4.5 67C2.29086 67 0.5 65.2091 0.5 63V5C0.5 2.23858 2.73858 0 5.5 0H82.5481C84.3692 0 86.0463 0.990111 86.926 2.58461L99.612 25.578C100.675 27.504 100.063 29.9239 98.2125 31.1134C96.1956 32.41 93.5036 31.7478 92.3184 29.6635L81.4378 10.5285C80.549 8.96545 78.8894 8 77.0913 8H13.5C10.7386 8 8.5 10.2386 8.5 13Z" fill="#9A0F0F"/>
<path d="M53.0744 48H52.5C49.7386 48 47.5 50.2386 47.5 53V86C47.5 88.4853 49.5147 90.5 52 90.5C54.4853 90.5 56.5 88.4853 56.5 86V73.733C56.5 71.6682 59.2482 70.9575 60.2492 72.7633L69.25 89L80.0875 108.55C81.1715 110.506 83.5655 111.315 85.6139 110.419C87.9623 109.391 88.9103 106.561 87.6545 104.326L57.4333 50.5504C56.548 48.9751 54.8815 48 53.0744 48Z" fill="#9A0F0F"/>
<path d="M56.5 238.5V254.5C56.5 256.985 54.4853 259 52 259C49.5147 259 47.5 256.985 47.5 254.5V238.5C47.5 236.015 49.5147 234 52 234C54.4853 234 56.5 236.015 56.5 238.5Z" fill="#9A0F0F"/>
<path d="M72 223V270C72 272.485 69.9853 274.5 67.5 274.5C65.0147 274.5 63 272.485 63 270V223C63 220.515 65.0147 218.5 67.5 218.5C69.9853 218.5 72 220.515 72 223Z" fill="#9A0F0F"/>
<path d="M57 113V212C57 214.485 54.9853 216.5 52.5 216.5C50.0147 216.5 48 214.485 48 212V113C48 110.515 50.0147 108.5 52.5 108.5C54.9853 108.5 57 110.515 57 113Z" fill="#9A0F0F"/>
<path d="M107.973 110.007L127.607 144.013C128.85 146.165 128.112 148.918 125.96 150.16C123.808 151.403 121.055 150.665 119.813 148.513L100.179 114.507C98.9366 112.354 99.674 109.602 101.826 108.36C103.979 107.117 106.731 107.854 107.973 110.007Z" fill="#9A0F0F"/>
<path d="M100.044 127.397L108.076 141.308C109.319 143.461 108.581 146.213 106.429 147.455C104.276 148.698 101.524 147.961 100.282 145.808L92.25 131.897C91.0074 129.745 91.7448 126.993 93.8971 125.75C96.0494 124.507 98.8016 125.245 100.044 127.397Z" fill="#9A0F0F"/>
<path d="M225 206V269C225 271.485 222.985 273.5 220.5 273.5C218.015 273.5 216 271.485 216 269V206C216 203.515 218.015 201.5 220.5 201.5C222.985 201.5 225 203.515 225 206Z" fill="#9A0F0F"/>
<path d="M273 230V269C273 271.485 270.985 273.5 268.5 273.5C266.015 273.5 264 271.485 264 269V230C264 227.515 266.015 225.5 268.5 225.5C270.985 225.5 273 227.515 273 230Z" fill="#9A0F0F"/>
<path d="M241 222V254C241 256.485 238.985 258.5 236.5 258.5C234.015 258.5 232 256.485 232 254V222C232 219.515 234.015 217.5 236.5 217.5C238.985 217.5 241 219.515 241 222Z" fill="#9A0F0F"/>
<path d="M257 141V239C257 241.485 254.985 243.5 252.5 243.5C250.015 243.5 248 241.485 248 239V141C248 138.515 250.015 136.5 252.5 136.5C254.985 136.5 257 138.515 257 141Z" fill="#9A0F0F"/>
<path d="M289 161V254C289 256.485 286.985 258.5 284.5 258.5C282.015 258.5 280 256.485 280 254V161C280 158.515 282.015 156.5 284.5 156.5C286.985 156.5 289 158.515 289 161Z" fill="#9A0F0F"/>
<path d="M273 105V204C273 206.485 270.985 208.5 268.5 208.5C266.015 208.5 264 206.485 264 204V105C264 102.515 266.015 100.5 268.5 100.5C270.985 100.5 273 102.515 273 105Z" fill="#9A0F0F"/>
<path d="M241 97V196C241 198.485 238.985 200.5 236.5 200.5C234.015 200.5 232 198.485 232 196V97C232 94.5147 234.015 92.5 236.5 92.5C238.985 92.5 241 94.5147 241 97Z" fill="#9A0F0F"/>
<path d="M257 75V114C257 116.485 254.985 118.5 252.5 118.5C250.015 118.5 248 116.485 248 114V75C248 72.5147 250.015 70.5 252.5 70.5C254.985 70.5 257 72.5147 257 75Z" fill="#9A0F0F"/>
<path d="M202.797 154.897L171.044 209.894C169.802 212.046 167.05 212.783 164.897 211.541C162.745 210.298 162.008 207.546 163.25 205.394L195.002 150.397C196.245 148.245 198.997 147.507 201.15 148.75C203.302 149.993 204.039 152.745 202.797 154.897Z" fill="#9A0F0F"/>
<path d="M213.963 35.4278L195.044 68.1966C193.802 70.349 191.05 71.0864 188.897 69.8438C186.745 68.6011 186.007 65.849 187.25 63.6966L206.169 30.9278C207.412 28.7755 210.164 28.0381 212.316 29.2807C214.469 30.5233 215.206 33.2755 213.963 35.4278Z" fill="#9A0F0F"/>
<path d="M41 73V172C41 174.485 38.9853 176.5 36.5 176.5C34.0147 176.5 32 174.485 32 172V73C32 70.5147 34.0147 68.5 36.5 68.5C38.9853 68.5 41 70.5147 41 73Z" fill="#9A0F0F"/>
<path d="M25 65V164C25 166.485 22.9853 168.5 20.5 168.5C18.0147 168.5 16 166.485 16 164V65C16 62.5147 18.0147 60.5 20.5 60.5C22.9853 60.5 25 62.5147 25 65Z" fill="#9A0F0F"/>
<path d="M9 88V187C9 189.485 6.98528 191.5 4.5 191.5C2.01472 191.5 0 189.485 0 187V88C0 85.5147 2.01472 83.5 4.5 83.5C6.98528 83.5 9 85.5147 9 88Z" fill="#9A0F0F"/>
<path d="M9 214V254C9 256.485 6.98528 258.5 4.5 258.5C2.01472 258.5 0 256.485 0 254V214C0 211.515 2.01472 209.5 4.5 209.5C6.98528 209.5 9 211.515 9 214Z" fill="#9A0F0F"/>
<path d="M41 199V239C41 241.485 38.9853 243.5 36.5 243.5C34.0147 243.5 32 241.485 32 239V199C32 196.515 34.0147 194.5 36.5 194.5C38.9853 194.5 41 196.515 41 199Z" fill="#9A0F0F"/>
<path d="M25 190V270C25 272.485 22.9853 274.5 20.5 274.5C18.0147 274.5 16 272.485 16 270V190C16 187.515 18.0147 185.5 20.5 185.5C22.9853 185.5 25 187.515 25 190Z" fill="#9A0F0F"/>
<path d="M72.7257 136.494V198.114C72.7257 200.523 70.7724 202.477 68.3628 202.477C65.9533 202.477 64 200.523 64 198.114V102.218C64 100.154 66.746 99.4426 67.7483 101.247L119.89 195.097C121.066 197.214 120.35 199.881 118.272 201.124C116.099 202.424 113.282 201.669 112.051 199.456L76.4733 135.521C75.4702 133.718 72.7257 134.431 72.7257 136.494Z" fill="#9A0F0F"/>
</svg>
